<svg width="288" height="226" viewBox="0 0 288 226" fill="none" xmlns="http://www.w3.org/2000/svg">
<path fill-rule="evenodd" clip-rule="evenodd" d="M251.383 145.95C252.316 141.395 252.809 136.646 252.809 131.767C252.809 97.44 228.388 69.6127 198.264 69.6127C178.8 69.6127 161.717 81.2293 152.064 98.71C149.376 98.037 146.584 97.6823 143.718 97.6823C122.34 97.6823 105.009 117.431 105.009 141.792C105.009 143.237 105.07 144.667 105.189 146.077C85.2712 148.417 69.818 165.354 69.818 185.901C69.818 208.047 87.7711 226 109.917 226H247.9C270.047 226 288 208.047 288 185.901C288 164.928 271.898 147.715 251.383 145.95Z" fill="url(#paint0_linear)"/>
<mask id="mask0" mask-type="alpha" maskUnits="userSpaceOnUse" x="0" y="0" width="288" height="226">
<path fill-rule="evenodd" clip-rule="evenodd" d="M288 0H0V225.886H76.5718C66.3663 216.45 59.8441 202.043 59.8441 185.901C59.8441 161.262 75.0385 140.667 95.3325 135.62C98.0264 107.887 118.662 86.3168 143.718 86.3168C144.968 86.3168 146.209 86.3707 147.438 86.4768C159.236 69.3087 177.613 58.2472 198.264 58.2472C233.897 58.2472 262.783 91.1629 262.783 131.767C262.783 133.076 262.753 134.378 262.693 135.672C272.839 138.253 281.697 144.724 288 153.639V0ZM288 218.162C285.994 221 283.729 223.59 281.246 225.886H288V218.162Z" fill="#EF0000"/>
</mask>
<g mask="url(#mask0)">
<path fill-rule="evenodd" clip-rule="evenodd" d="M102.234 7.10327C98.4464 7.10327 95.3764 10.1733 95.3764 13.9604V47.1281C95.3764 50.9152 98.4464 53.9852 102.234 53.9852C106.021 53.9852 109.091 50.9152 109.091 47.1281V13.9604C109.091 10.1733 106.021 7.10327 102.234 7.10327ZM102.234 179.004C98.4464 179.004 95.3764 182.074 95.3764 185.861V219.029C95.3764 222.816 98.4464 225.886 102.234 225.886C106.021 225.886 109.091 222.816 109.091 219.029V185.861C109.091 182.074 106.021 179.004 102.234 179.004ZM39.5631 108.681C43.8784 108.681 47.3768 112.179 47.3768 116.495C47.3768 120.81 43.8785 124.308 39.5631 124.308H14.0476C9.73219 124.308 6.23389 120.81 6.23389 116.495C6.23389 112.179 9.73218 108.681 14.0475 108.681H39.5631ZM198.234 116.495C198.234 112.179 194.736 108.681 190.42 108.681H164.905C160.589 108.681 157.091 112.179 157.091 116.495C157.091 120.81 160.589 124.308 164.905 124.308H190.42C194.736 124.308 198.234 120.81 198.234 116.495ZM143.376 116.495C143.376 142.387 124.956 163.377 102.234 163.377C79.511 163.377 61.0907 142.387 61.0907 116.495C61.0907 90.6024 79.511 69.6127 102.234 69.6127C124.956 69.6127 143.376 90.6024 143.376 116.495ZM160.418 39.1431C163.096 36.0916 167.438 36.0916 170.116 39.1431C172.794 42.1945 172.794 47.1418 170.116 50.1932L150.721 72.2936C148.043 75.345 143.701 75.345 141.023 72.2936C138.345 69.2422 138.345 64.2948 141.023 61.2434L160.418 39.1431ZM53.7464 160.695C56.4242 157.644 60.7659 157.644 63.4438 160.695C66.1217 163.747 66.1217 168.694 63.4438 171.745L44.0489 193.846C41.371 196.897 37.0293 196.897 34.3514 193.846C31.6735 190.794 31.6735 185.847 34.3514 182.796L53.7464 160.695ZM63.4438 72.2939C66.1217 69.2425 66.1217 64.2952 63.4438 61.2438L44.0489 39.1434C41.371 36.092 37.0293 36.092 34.3514 39.1434C31.6735 42.1948 31.6735 47.1422 34.3514 50.1936L53.7464 72.2939C56.4242 75.3454 60.7659 75.3454 63.4438 72.2939ZM170.116 182.795C172.794 185.847 172.794 190.794 170.116 193.845C167.438 196.897 163.096 196.897 160.419 193.845L141.024 171.745C138.346 168.694 138.346 163.746 141.024 160.695C143.701 157.643 148.043 157.643 150.721 160.695L170.116 182.795Z" fill="url(#paint1_linear)"/>
</g>
<defs>
<linearGradient id="paint0_linear" x1="178.909" y1="69.6127" x2="178.909" y2="226" gradientUnits="userSpaceOnUse">
<stop stop-color="#40CCEF"/>
<stop offset="0.0001" stop-color="#0094FF" stop-opacity="0.958021"/>
<stop offset="1" stop-color="#40CCEF" stop-opacity="0.78"/>
</linearGradient>
<linearGradient id="paint1_linear" x1="102.234" y1="7.10327" x2="102.234" y2="225.886" gradientUnits="userSpaceOnUse">
<stop stop-color="#FFB800"/>
<stop offset="1" stop-color="#FFE600"/>
</linearGradient>
</defs>
</svg>
